<svg width="1440" height="966" viewBox="0 0 1440 966" fill="none" xmlns="http://www.w3.org/2000/svg">
<g clip-path="url(#clip0_2145_1197)">
<rect width="1440" height="965.51" fill="#F5F5F5"/>
<path opacity="0.4" d="M268.983 -30C-13.1643 -30 -242 199.626 -242 482.749C-242 765.871 -13.1643 995.637 268.983 995.637C551.13 995.637 779.966 766.01 779.966 482.749C779.966 199.487 551.13 -30 268.983 -30ZM261.884 183.145C278.03 194.598 292.228 208.566 309.906 225.047C313.247 227.981 316.309 231.612 328.001 227.562C351.943 220.438 406.785 193.341 446.038 189.709C463.855 187.335 468.588 189.709 479.306 199.347C499.906 216.946 515.218 229.936 527.885 243.904C487.379 248.513 474.295 251.865 465.525 253.96L461.35 254.938H460.514C442.141 259.827 436.434 272.537 434.903 277.845C434.207 280.079 433.65 283.152 433.65 286.784C433.65 292.65 435.599 300.053 441.306 307.735C451.467 324.357 457.174 335.81 460.793 344.47C422.932 356.203 381.452 372.126 363.217 380.366C351.943 385.534 343.73 395.591 341.364 407.324C340.946 409.14 340.668 411.514 340.668 414.168C340.668 421.431 342.895 431.348 351.943 441.125C379.921 471.156 411.657 539.736 411.657 615.021C411.657 631.363 410.126 647.985 406.785 664.746C391.056 742.964 338.58 802.466 250.888 841.854C205.371 862.247 159.019 866.577 112.111 864.901C114.755 864.621 117.4 864.342 119.906 864.062C208.016 853.307 269.818 822.719 312.69 746.316C371.848 640.861 327.027 511.522 238.36 438.192C213.166 417.38 184.074 401.318 156.096 384.557C148.997 380.366 145.1 374.081 154.008 363.326C168.484 342.654 192.704 310.529 233.071 278.264C241.422 272.258 237.943 267.509 234.323 262.76C219.986 250.887 210.521 243.624 192.704 232.869C183.239 228.12 179.342 223.092 186.719 216.248C195.627 208.147 209.547 195.995 243.232 181.608C250.331 177.139 257.847 179.932 262.023 183.424L261.884 183.145ZM-70.7909 274.353C-63.8312 260.385 -47.267 229.377 -32.3732 210.661C-28.7541 206.191 -25.6918 204.375 -17.7577 205.772C-3.42069 208.286 22.0519 218.902 55.1802 228.26C61.3047 229.936 64.9238 229.936 70.074 224.07C83.5758 208.845 121.715 173.647 183.657 147.807C190.616 144.874 199.942 144.734 208.433 148.924C215.95 152.556 224.162 156.187 233.906 161.076C204.536 174.345 189.224 186.357 177.254 197.252C167.093 206.61 164.865 216.527 164.865 223.511C164.865 225.187 164.865 226.584 165.144 227.841C166.814 239.434 174.331 248.792 187.415 255.916L189.085 256.893C188.528 256.614 187.972 256.195 187.415 255.916C196.88 261.642 203.561 266.112 210.104 270.861C176.558 300.193 155.122 328.547 141.202 348.381C130.902 361.51 130.206 373.243 131.459 380.925C132.712 388.607 137.166 399.362 150.946 407.603L165.005 415.984C188.389 429.812 210.521 442.941 230.008 459.004C305.452 521.578 353.195 636.112 298.214 734.164C261.327 799.951 207.877 833.893 125.056 843.949C94.8506 847.72 66.0374 845.067 39.4512 838.223C50.4476 839.619 61.7223 840.318 73.5538 840.038C135.913 838.921 201.334 817.411 235.437 763.636C320.624 629.128 222.77 490.012 90.2572 446.014C60.1912 435.957 11.0555 425.202 -27.919 420.314C-42.256 418.498 -45.7358 414.028 -41.2816 404.251C-33.4867 386.931 -17.8969 353.409 10.2204 310.808C11.4731 308.992 10.9163 304.243 5.48773 302.707C-8.8493 298.656 -38.6369 290.555 -62.5783 286.924C-71.0692 285.666 -74.2707 281.616 -70.6517 274.632L-70.7909 274.353ZM339.137 944.516C44.1838 989.91 -105.729 767.547 -105.729 767.547C-38.0801 833.334 77.0337 940.186 251.584 859.174C505.057 745.338 430.309 491.269 361.13 416.822C352.778 407.882 358.207 400.48 364.053 397.686C383.957 388.607 436.851 368.354 478.61 357.041C483.342 355.504 484.317 353.13 481.811 347.124C478.192 336.648 474.156 320.865 453.276 287.063C446.734 279.94 449.657 275.75 456.895 273.934C466.082 271.978 473.738 268.347 526.493 262.62C532.2 261.782 538.324 264.017 540.83 268.626C552.104 288.739 560.317 309.132 568.251 335.391C569.086 338.045 573.123 343.352 577.716 343.492C597.064 344.33 667.079 344.749 703.687 352.152C706.61 352.85 713.013 356.342 714.544 360.533C724.427 390.004 746.002 532.194 683.643 682.345C612.236 854.285 473.738 923.564 339.276 944.376L339.137 944.516Z" fill="#E4E4E4"/>
</g>
<defs>
<clipPath id="clip0_2145_1197">
<rect width="1440" height="965.51" fill="white"/>
</clipPath>
</defs>
</svg>
