<svg width="21" height="21" viewBox="0 0 21 21" fill="none" xmlns="http://www.w3.org/2000/svg">
<g clip-path="url(#clip0_2152_937)">
<path d="M10.8991 10.315C9.61084 10.315 8.55682 9.90509 7.73703 9.08529C6.91724 8.2655 6.50734 7.21148 6.50734 5.92324C6.50734 4.63499 6.91724 3.58097 7.73703 2.76118C8.55682 1.94139 9.61084 1.53149 10.8991 1.53149C12.1873 1.53149 13.2413 1.94139 14.0611 2.76118C14.8809 3.58097 15.2908 4.63499 15.2908 5.92324C15.2908 7.21148 14.8809 8.2655 14.0611 9.08529C13.2413 9.90509 12.1873 10.315 10.8991 10.315ZM1.53003 19.7133L1.53003 16.9612C1.53003 16.2194 1.71546 15.5851 2.08632 15.0581C2.45718 14.5311 2.93539 14.1309 3.52095 13.8577C4.82872 13.2721 6.0828 12.8329 7.28321 12.5401C8.48362 12.2473 9.68891 12.101 10.8991 12.101C12.1093 12.101 13.3097 12.2522 14.5003 12.5548C15.691 12.8573 16.9402 13.2916 18.2479 13.8577C18.853 14.1309 19.341 14.5311 19.7118 15.0581C20.0827 15.5851 20.2681 16.2194 20.2681 16.9612L20.2681 19.7133L1.53003 19.7133ZM3.28673 17.9566L18.5114 17.9566L18.5114 16.9612C18.5114 16.6489 18.4187 16.3512 18.2333 16.0682C18.0479 15.7851 17.8185 15.5753 17.5453 15.4387C16.296 14.8336 15.1542 14.4188 14.1197 14.1944C13.0852 13.9699 12.0117 13.8577 10.8991 13.8577C9.78651 13.8577 8.70321 13.9699 7.64919 14.1944C6.59517 14.4188 5.45332 14.8336 4.22363 15.4387C3.95037 15.5753 3.7259 15.7851 3.55023 16.0682C3.37456 16.3512 3.28673 16.6489 3.28673 16.9612L3.28673 17.9566ZM10.8991 8.55828C11.6603 8.55828 12.2898 8.30942 12.7875 7.81169C13.2853 7.31396 13.5341 6.68447 13.5341 5.92324C13.5341 5.162 13.2853 4.53252 12.7875 4.03479C12.2898 3.53706 11.6603 3.28819 10.8991 3.28819C10.1378 3.28819 9.50836 3.53706 9.01063 4.03479C8.5129 4.53252 8.26404 5.162 8.26404 5.92324C8.26404 6.68447 8.5129 7.31396 9.01063 7.81169C9.50836 8.30942 10.1378 8.55828 10.8991 8.55828Z" fill="#5D6977"/>
</g>
<defs>
<clipPath id="clip0_2152_937">
<rect width="20" height="20" fill="white" transform="translate(0.621826 0.623291)"/>
</clipPath>
</defs>
</svg>
