<svg width="22" height="23" viewBox="0 0 22 23" fill="none" xmlns="http://www.w3.org/2000/svg">
<path d="M5.04102 20.7725C4.65907 20.7725 4.33442 20.6388 4.06706 20.3714C3.7997 20.1041 3.66602 19.7794 3.66602 19.3975V9.45163C3.66602 9.06968 3.7997 8.74503 4.06706 8.47767C4.33442 8.21031 4.65907 8.07663 5.04102 8.07663H6.64518V5.87663C6.64518 4.66968 7.06914 3.64225 7.91706 2.79434C8.76497 1.94642 9.7924 1.52246 10.9993 1.52246C12.2063 1.52246 13.2337 1.94642 14.0816 2.79434C14.9296 3.64225 15.3535 4.66968 15.3535 5.87663V8.07663H16.9577C17.3396 8.07663 17.6643 8.21031 17.9316 8.47767C18.199 8.74503 18.3327 9.06968 18.3327 9.45163V19.3975C18.3327 19.7794 18.199 20.1041 17.9316 20.3714C17.6643 20.6388 17.3396 20.7725 16.9577 20.7725H5.04102ZM5.04102 19.3975H16.9577V9.45163H5.04102V19.3975ZM10.9993 16.1891C11.4882 16.1891 11.9046 16.0211 12.2483 15.685C12.5921 15.3488 12.7639 14.944 12.7639 14.4704C12.7639 14.012 12.5921 13.5957 12.2483 13.2214C11.9046 12.8471 11.4882 12.66 10.9993 12.66C10.5105 12.66 10.0941 12.8471 9.75039 13.2214C9.40664 13.5957 9.23477 14.012 9.23477 14.4704C9.23477 14.944 9.40664 15.3488 9.75039 15.685C10.0941 16.0211 10.5105 16.1891 10.9993 16.1891ZM8.02018 8.07663H13.9785V5.87663C13.9785 5.05163 13.6882 4.34885 13.1077 3.76829C12.5271 3.18774 11.8243 2.89746 10.9993 2.89746C10.1743 2.89746 9.47157 3.18774 8.89102 3.76829C8.31046 4.34885 8.02018 5.05163 8.02018 5.87663V8.07663Z" fill="#5D6977"/>
</svg>
