<svg width="120" height="100" viewBox="0 0 120 100" fill="none" xmlns="http://www.w3.org/2000/svg">
<path d="M0.00815247 89.5922L1.32908 89.4846C2.756 89.3357 2.756 89.1537 2.756 84.6116V71.6638C2.756 67.13 2.756 66.9397 1.32908 66.7908L0.00815247 66.675V65.8559H9.58076C13.0624 65.8559 18.4847 66.4102 18.4847 72.5491C18.4847 77.6124 12.9157 79.9537 9.4666 79.9537H8.84691V79.1347C10.4206 79.1347 14.6361 78.3901 14.6361 72.7724C14.6361 68.4207 11.7415 67.0804 8.43922 67.0804C7.67276 67.0804 6.89814 67.2293 6.1643 67.3782V84.6033C6.1643 89.1371 6.1643 89.3274 8.1783 89.4764L9.49922 89.5839V90.403H0V89.5839L0.00815247 89.5922Z" fill="#FF7500"/>
<path d="M18.1749 80.69C18.1749 74.2285 23.0998 70.2242 28.783 70.2242C34.4663 70.2242 38.7796 73.7239 38.7796 80.3674C38.7796 87.0109 34.0586 90.8662 28.2286 90.8662C22.3986 90.8662 18.1749 87.1598 18.1749 80.6983V80.69ZM28.783 89.8734C33.7976 89.8734 35.6812 85.5051 35.6812 81.1368C35.6812 75.4861 32.9089 71.2088 28.2856 71.2088C23.6624 71.2088 21.2733 74.9483 21.2733 80.1192C21.2733 86.2166 24.3392 89.8652 28.7912 89.8652L28.783 89.8734Z" fill="#FF7500"/>
<path d="M47.6999 79.0767C50.0319 80.4253 52.4455 81.6746 52.4455 85.2652C52.4455 89.3026 48.7599 90.858 45.637 90.858C43.3376 90.858 41.9189 90.2292 41.0056 89.6583C40.4756 88.4918 40.0598 86.2745 40.0598 84.3965L41.0056 84.1566C41.3318 86.3076 42.4163 89.8652 46.4606 89.8652C48.4909 89.8652 49.9993 88.5166 49.9993 86.1835C49.9993 83.9994 48.1973 82.5019 45.8979 81.4594L44.0144 80.4087C42.3347 79.4821 40.7692 77.6289 40.7692 75.3868C40.7692 71.7383 43.778 70.216 46.9009 70.216C48.7273 70.216 50.2032 70.6958 50.9696 71.1757C51.2061 72.1354 51.2632 74.5595 51.2632 75.3041H50.5293C50.2358 73.8066 49.7629 71.2088 46.4279 71.2088C44.7156 71.2088 43.2153 72.4663 43.2153 74.4685C43.2153 76.2307 44.4873 77.1904 46.0773 78.1501L47.6999 79.0767Z" fill="#FF7500"/>
<path d="M52.5433 89.7576L53.6033 89.6666C54.753 89.5425 54.753 89.3936 54.753 85.745V75.3372C54.753 71.6886 54.753 71.5397 53.6033 71.4239L52.5433 71.3329V70.671H59.7024V71.3329L58.6424 71.4239C57.4927 71.5397 57.4927 71.6969 57.4927 75.3372V85.745C57.4927 89.3936 57.4927 89.5425 58.6424 89.6666L59.7024 89.7576V90.4195H52.5433V89.7576Z" fill="#FF7500"/>
<path d="M65.5324 89.7576L66.625 89.6666C68.2476 89.5425 68.2476 89.3936 68.2476 85.745V71.5066H66.7147C62.5562 71.5066 62.4992 71.9534 61.855 75.4282H61.1456C61.1456 75.3041 61.0886 74.5015 61.0886 74.1127C61.0886 72.7393 61.2924 71.3329 61.4147 70.671H77.8365C77.9507 71.3329 78.1627 72.731 78.1627 74.1127C78.1627 74.5015 78.1056 75.3123 78.1056 75.4282H77.3962C76.7439 71.9616 76.6868 71.5066 72.5284 71.5066H70.9955V85.745C70.9955 89.3936 70.9955 89.5425 72.6425 89.6666L73.7025 89.7576V90.4195H65.5406V89.7576H65.5324Z" fill="#FF7500"/>
<path d="M79.1819 89.7576L80.2419 89.6666C81.3916 89.5425 81.3916 89.3936 81.3916 85.745V75.3372C81.3916 71.6886 81.3916 71.5397 80.2419 71.4239L79.1819 71.3329V70.671H86.341V71.3329L85.281 71.4239C84.1313 71.5397 84.1313 71.6969 84.1313 75.3372V85.745C84.1313 89.3936 84.1313 89.5425 85.281 89.6666L86.341 89.7576V90.4195H79.1819V89.7576Z" fill="#FF7500"/>
<path d="M89.79 73.7239C89.3497 72.6152 89.0235 71.5066 88.0532 71.4239L87.1971 71.3329V70.671H94.5355V71.3329L93.6223 71.4239C93.1494 71.4818 92.2932 71.5728 92.2932 72.1685C92.2932 72.3174 92.5297 73.0041 92.6765 73.3598L97.7726 86.7048C98.4494 84.9094 103.081 73.2771 103.081 72.3505C103.081 71.7548 102.494 71.6059 101.931 71.5149L100.602 71.3329V70.671H106.97V71.3329L106.204 71.5149C105.878 71.5728 105.551 71.7548 105.323 71.9947C104.671 72.6566 103.733 75.5275 102.991 76.9587L100.985 81.8648C99.3055 85.9932 97.8297 89.6418 97.5688 90.4195C97.422 90.5353 96.9491 90.7504 96.5658 90.8662L89.7818 73.7239H89.79Z" fill="#FF7500"/>
<path d="M100.512 89.7576L101.075 89.6666C102.192 89.4846 102.347 89.1619 103.048 87.4245L109.18 72.2926C109.416 71.6969 109.653 71.1012 109.889 70.5304L110.745 70.2325L117.317 87.5487C117.758 88.7483 118.051 89.435 118.818 89.5839L120 89.7659V90.4278H112.686V89.7659L114.015 89.526C114.545 89.435 114.928 89.286 114.928 88.9551C114.928 88.7483 114.814 88.5332 114.749 88.3263L112.686 82.6756C111.593 82.4688 110.509 82.3778 109.416 82.3778C108.381 82.3778 107.353 82.4936 106.318 82.6756L104.818 86.8289C104.467 87.7886 104.23 88.5911 104.23 88.831C104.23 89.4019 104.614 89.4846 104.94 89.5177L106.709 89.7576V90.4195H100.52V89.7576H100.512ZM106.701 81.5339C107.582 81.476 108.495 81.385 109.384 81.385C110.33 81.385 111.275 81.4098 112.213 81.5339L109.498 74.2947L106.701 81.5339Z" fill="#FF7500"/>
<path d="M23.3118 97.9648C23.2547 98.577 23.1487 99.0403 22.9204 99.6277C22.6513 99.7518 21.8686 100 20.939 100C19.1044 100 17.3676 99.1313 17.3676 96.6493C17.3676 94.0432 19.4387 93.2655 20.9553 93.2655C21.9338 93.2655 22.6676 93.5137 22.9123 93.6626C23.0019 94.0515 23.0672 94.6223 23.0672 95.1105L22.8062 95.1684C22.7084 94.7795 22.5861 93.5882 20.939 93.5882C19.2919 93.5882 18.3706 94.6389 18.3706 96.4673C18.3706 98.1385 19.1615 99.6773 20.9146 99.6773C22.5127 99.6773 22.7492 98.6928 23.0509 97.9068L23.3118 97.9648Z" fill="#FF7500"/>
<path d="M23.6298 97.2947C23.6298 95.5986 24.9181 94.5479 26.4103 94.5479C27.9024 94.5479 29.0358 95.4663 29.0358 97.2037C29.0358 98.9411 27.7964 99.9587 26.2716 99.9587C24.7469 99.9587 23.638 98.9824 23.638 97.2947H23.6298ZM26.4103 99.7022C27.723 99.7022 28.2204 98.5522 28.2204 97.4105C28.2204 95.9296 27.4947 94.8044 26.2798 94.8044C25.0649 94.8044 24.437 95.7889 24.437 97.1457C24.437 98.7425 25.2443 99.7022 26.4103 99.7022Z" fill="#FF7500"/>
<path d="M29.468 99.6691L29.6637 99.6195C29.7778 99.5946 29.8593 99.5615 29.9083 99.5285C29.9817 99.4457 30.0387 98.9493 30.0877 98.2295L30.21 96.2522C30.2426 95.7144 30.2915 94.8706 30.2915 94.6554L30.5035 94.581C30.74 94.9864 32.5012 98.3702 32.7376 98.8004C32.9823 98.4033 34.719 95.0526 34.8658 94.6472L35.0696 94.5727C35.0696 94.6389 35.1267 95.5159 35.1756 96.55L35.2409 97.9069C35.2735 98.577 35.3224 99.3382 35.3876 99.454C35.4284 99.5367 35.5426 99.5781 35.6812 99.6029L35.9095 99.6525V99.8263H33.9281V99.6525L34.2298 99.6029C34.5641 99.5615 34.5967 99.4374 34.5967 99.0817C34.5967 98.213 34.4663 96.5583 34.4663 96.0619H34.45C34.3195 96.4094 33.5286 97.94 32.7621 99.4788C32.7213 99.5533 32.6887 99.6526 32.6561 99.727L32.436 99.8263C32.2647 99.4623 31.2863 97.5511 30.7481 96.5169C30.6666 96.368 30.6013 96.2191 30.5361 96.0619H30.5198C30.4953 96.5087 30.3893 98.7259 30.3893 98.9741C30.3893 99.4374 30.3893 99.5698 30.7563 99.6112L31.0661 99.6608V99.8346H29.468V99.6608V99.6691Z" fill="#FF7500"/>
<path d="M36.2601 99.6691L36.5373 99.6443C36.839 99.6112 36.839 99.5698 36.839 98.6184V95.8882C36.839 94.9285 36.839 94.8871 36.5373 94.8623L36.2601 94.8375V94.6637H38.2741C39.0079 94.6637 40.1495 94.7796 40.1495 96.0785C40.1495 97.1457 38.9753 97.6421 38.2496 97.6421H38.1192V97.4684C38.4535 97.4684 39.3422 97.3112 39.3422 96.1281C39.3422 95.2098 38.7307 94.9285 38.0376 94.9285C37.8745 94.9285 37.7115 94.9616 37.5565 94.9864V98.6184C37.5565 99.5781 37.5565 99.6195 37.9805 99.6443L38.2578 99.6691V99.8428H36.2519V99.6691H36.2601Z" fill="#FF7500"/>
<path d="M39.7173 99.6691L39.8641 99.6443C40.1576 99.5947 40.1984 99.5119 40.386 99.0569L41.9923 95.0857C42.0575 94.9285 42.1146 94.7713 42.1798 94.6224L42.4081 94.5479L44.1286 99.09C44.2427 99.4044 44.3243 99.5864 44.52 99.6277L44.8298 99.6774V99.8511H42.9136V99.6774L43.2643 99.6112C43.4029 99.5864 43.5007 99.5533 43.5007 99.4623C43.5007 99.4044 43.4681 99.3547 43.4518 99.2968L42.9136 97.8159C42.6283 97.758 42.3429 97.7332 42.0575 97.7332C41.7884 97.7332 41.5193 97.7662 41.2421 97.8159L40.8507 98.908C40.761 99.1644 40.6958 99.3713 40.6958 99.4375C40.6958 99.5864 40.7936 99.6112 40.8833 99.6195L41.3481 99.6857V99.8594H39.7255V99.6857L39.7173 99.6691ZM41.34 97.5098C41.5764 97.4932 41.8129 97.4684 42.0412 97.4684C42.2858 97.4684 42.5386 97.4684 42.7832 97.5098L42.0738 95.6069L41.34 97.5098Z" fill="#FF7500"/>
<path d="M44.6912 99.6691L44.9684 99.6443C45.2701 99.6194 45.3272 99.3795 45.3272 98.5274V94.6554L45.5065 94.581C46.1507 95.4166 48.4338 97.8159 49.2736 98.6515V95.9626C49.2736 95.1022 49.2736 94.8871 48.8496 94.8457L48.5724 94.8209V94.6472H50.2439V94.8209L49.9667 94.8457C49.6895 94.8705 49.6324 95.1105 49.6324 95.9626V99.8263L49.4612 99.9007C49.2899 99.7187 48.8089 99.2058 48.0098 98.3619L45.6859 95.8716V98.5191C45.6859 99.3795 45.6859 99.5946 46.0855 99.636L46.3627 99.6608V99.8345H44.6912V99.6608V99.6691ZM46.3953 93.9605C46.485 93.8033 46.7622 93.2986 47.1781 93.2986C47.3656 93.2986 47.5532 93.3731 47.7325 93.4475C47.9282 93.5303 48.1321 93.6047 48.3278 93.6047C48.5479 93.6047 48.6947 93.3648 48.7518 93.2738L48.8496 93.3648C48.7681 93.5551 48.5398 94.0184 48.1158 94.0184C47.7489 94.0184 47.227 93.7123 46.9661 93.7123C46.7459 93.7123 46.5747 93.9522 46.5013 94.0598L46.3953 93.9605Z" fill="#FF7500"/>
<path d="M50.5946 99.6691L50.8718 99.6443C51.1735 99.6112 51.1735 99.5698 51.1735 98.6184V95.8882C51.1735 94.9285 51.1735 94.8871 50.8718 94.8623L50.5946 94.8375V94.6637H52.4781V94.8375L52.2009 94.8623C51.8992 94.8954 51.8992 94.9285 51.8992 95.8882V98.6184C51.8992 99.5781 51.8992 99.6195 52.2009 99.6443L52.4781 99.6691V99.8428H50.5946V99.6691Z" fill="#FF7500"/>
<path d="M52.4862 99.6691L52.633 99.6443C52.9266 99.5947 52.9673 99.5119 53.1549 99.0569L54.7612 95.0857C54.8264 94.9285 54.8835 94.7713 54.9487 94.6224L55.177 94.5479L56.8975 99.09C57.0116 99.4044 57.0932 99.5864 57.297 99.6277L57.6068 99.6774V99.8511H55.6907V99.6774L56.0413 99.6112C56.1799 99.5864 56.2778 99.5533 56.2778 99.4623C56.2778 99.4044 56.2452 99.3547 56.2289 99.2968L55.6907 97.8159C55.4053 97.758 55.1199 97.7332 54.8346 97.7332C54.5492 97.7332 54.2964 97.7662 54.0192 97.8159L53.6278 98.908C53.5381 99.1644 53.4729 99.3713 53.4729 99.4375C53.4729 99.5864 53.5707 99.6112 53.6604 99.6195L54.1252 99.6857V99.8594H52.5026V99.6857L52.4862 99.6691ZM54.1089 97.5098C54.3372 97.4932 54.5818 97.4684 54.8101 97.4684C55.0547 97.4684 55.3075 97.4684 55.5521 97.5098L54.8427 95.6069L54.1089 97.5098Z" fill="#FF7500"/>
<path d="M59.3191 99.7022L59.5474 99.6856C59.8002 99.6608 59.8002 99.6277 59.8002 98.8335V96.5666C59.8002 95.7723 59.8002 95.7393 59.5474 95.7144L59.3191 95.6979V95.5572H61.4228C62.7927 95.5572 63.6162 96.2853 63.6162 97.5428C63.6162 99.2389 62.3768 99.8428 61.0396 99.8428H59.3191V99.7022ZM60.3954 99.545C60.6401 99.5946 60.8847 99.636 61.1293 99.636C62.2953 99.636 62.9476 98.9824 62.9476 97.7083C62.9476 96.3432 62.2137 95.7641 61.0722 95.7641C60.8521 95.7641 60.6237 95.7972 60.3954 95.8303V99.545Z" fill="#FF7500"/>
<path d="M64.0973 99.7022L64.3256 99.6856C64.5784 99.6608 64.5784 99.6277 64.5784 98.8335V96.5666C64.5784 95.7723 64.5784 95.7393 64.3256 95.7144L64.0973 95.6979V95.5572H66.8615C66.8859 95.6979 66.9348 95.9461 66.9348 96.2439C66.9348 96.3929 66.9185 96.4425 66.9185 96.5004L66.7636 96.5252C66.625 95.8303 66.6087 95.731 65.7036 95.731H65.1736V97.518H65.7444C66.2418 97.518 66.3559 97.518 66.3967 97.245L66.4293 97.0216H66.5924V98.1964H66.4293L66.3967 97.9731C66.3559 97.7083 66.2418 97.7 65.7444 97.7H65.1736V99.5698C65.4019 99.6112 65.6384 99.6525 65.8748 99.6525C66.8941 99.6525 66.9593 99.2637 67.0898 98.7342L67.2528 98.759C67.2365 99.1727 67.1468 99.4788 67.0408 99.8346H64.1055V99.6939L64.0973 99.7022Z" fill="#FF7500"/>
<path d="M71.8027 96.1446C72.561 96.5831 73.3519 96.9968 73.3519 98.1633C73.3519 99.4788 72.1533 99.9917 71.1341 99.9917C70.3839 99.9917 69.9191 99.7849 69.6256 99.6029C69.4544 99.2223 69.3158 98.5025 69.3158 97.882L69.6256 97.8076C69.7316 98.5108 70.0904 99.6691 71.4031 99.6691C72.0636 99.6691 72.561 99.2306 72.561 98.4694C72.561 97.7579 71.9739 97.2698 71.2237 96.9306L70.6122 96.5914C70.0659 96.2853 69.5522 95.6813 69.5522 94.9533C69.5522 93.7619 70.5307 93.2655 71.5499 93.2655C72.1451 93.2655 72.6262 93.4227 72.879 93.5799C72.9605 93.8943 72.9768 94.6802 72.9768 94.9284H72.7404C72.6425 94.4403 72.4876 93.5882 71.4031 93.5882C70.8487 93.5882 70.3513 94.0018 70.3513 94.6472C70.3513 95.2263 70.7671 95.5324 71.289 95.8468L71.819 96.1446H71.8027Z" fill="#FF7500"/>
<path d="M73.8248 99.6691L74.102 99.6443C74.4037 99.6112 74.4037 99.5698 74.4037 98.6184V95.8882C74.4037 94.9285 74.4037 94.8871 74.102 94.8623L73.8248 94.8375V94.6637H77.1597C77.1923 94.8375 77.2413 95.1353 77.2413 95.4911C77.2413 95.6731 77.225 95.7393 77.225 95.8055L77.0374 95.8385C76.8662 95.0029 76.8499 94.8788 75.7654 94.8788H75.1213V97.0382H75.8062C76.4096 97.0382 76.5482 97.0299 76.5971 96.7072L76.6379 96.4425H76.8417V97.8572H76.6379L76.5971 97.5925C76.5482 97.2698 76.4096 97.2616 75.8062 97.2616H75.1213V99.5202C75.3985 99.5781 75.6839 99.6195 75.9611 99.6195C77.1924 99.6195 77.2657 99.1479 77.4207 98.5026L77.6164 98.5357C77.5919 99.0403 77.494 99.4044 77.3636 99.8346H73.8248V99.6608V99.6691Z" fill="#FF7500"/>
<path d="M82.8756 99.5698C82.6146 99.6691 81.7666 99.9587 80.9431 99.9587C79.3857 99.9587 77.9996 99.272 77.9996 97.2698C77.9996 95.2677 79.6629 94.5479 80.886 94.5479C81.6769 94.5479 82.264 94.7465 82.4679 94.8706C82.5331 95.185 82.5902 95.64 82.5902 96.0288L82.3782 96.0785C82.3048 95.7641 82.1988 94.8044 80.8779 94.8044C79.557 94.8044 78.815 95.6565 78.815 97.1209C78.815 98.4612 79.4836 99.7022 81.0002 99.7022C81.2774 99.7022 81.6362 99.6691 81.9053 99.6029V99.3134C81.9053 98.3537 81.9053 98.3206 81.3671 98.2875L81.0899 98.2626V98.0889H83.0549V98.2626L82.7777 98.2875C82.6309 98.3206 82.6309 98.3619 82.6309 99.1231C82.6309 99.3547 82.6309 99.4044 82.7532 99.4044H82.8266L82.8837 99.5781L82.8756 99.5698Z" fill="#FF7500"/>
<path d="M87.6374 99.6856C87.5314 99.5781 87.4662 99.4705 87.352 99.4705C87.246 99.4705 86.6019 99.9669 85.5745 99.9669C83.9763 99.9669 83.8377 99.032 83.8377 97.9648V95.8964C83.8377 94.9367 83.8377 94.8954 83.536 94.8705L83.2588 94.8457V94.672H85.1423V94.8457L84.8651 94.8705C84.5634 94.9036 84.5634 94.9367 84.5634 95.8964V97.8407C84.5634 98.9658 84.751 99.7105 85.9496 99.7105C86.7568 99.7105 87.2297 99.2223 87.352 99.0817V95.8964C87.352 94.9367 87.352 94.8954 87.0503 94.8705L86.7731 94.8457V94.672H88.6485V94.8457L88.3713 94.8705C88.0696 94.9036 88.0696 94.9367 88.0696 95.8964V99.8511L87.8413 99.9256L87.6456 99.6939L87.6374 99.6856Z" fill="#FF7500"/>
<path d="M89.0317 99.6691L89.3089 99.6443C89.6106 99.6112 89.6106 99.5698 89.6106 98.6184V95.8882C89.6106 94.9285 89.6106 94.8871 89.3089 94.8623L89.0317 94.8375V94.6637H91.0539C91.7877 94.6637 92.8232 94.7713 92.8232 95.9626C92.8232 96.6907 92.1791 97.1292 91.7551 97.3277C91.8692 97.5511 92.122 98.0475 92.334 98.4281C92.6602 99.0155 93.0026 99.4788 93.1902 99.5864C93.2717 99.636 93.4103 99.6691 93.5734 99.6691V99.8428H92.9782C92.4645 99.8428 92.1139 99.4871 91.8774 99.0569L91.5676 98.4529C91.3637 98.0723 91.1843 97.7662 91.0865 97.6835C90.9642 97.5842 90.7685 97.5842 90.6054 97.5842H90.32V98.6184C90.32 99.5781 90.32 99.6195 90.6135 99.6443L90.8908 99.6691V99.8428H89.0154V99.6691H89.0317ZM90.3363 97.3608H90.7766C91.4289 97.3608 92.016 97.0051 92.016 96.1198C92.016 95.2346 91.4208 94.9202 90.8174 94.9202C90.6543 94.9202 90.4912 94.9533 90.3363 94.9781V97.3608Z" fill="#FF7500"/>
<path d="M93.4674 97.2947C93.4674 95.5986 94.7557 94.5479 96.256 94.5479C97.7563 94.5479 98.8815 95.4663 98.8815 97.2037C98.8815 98.9411 97.6422 99.9587 96.1092 99.9587C94.5763 99.9587 93.4756 98.9824 93.4756 97.2947H93.4674ZM96.256 99.7022C97.5688 99.7022 98.0662 98.5522 98.0662 97.4105C98.0662 95.9296 97.3405 94.8044 96.1256 94.8044C94.9106 94.8044 94.2828 95.7889 94.2828 97.1457C94.2828 98.7425 95.09 99.7022 96.256 99.7022Z" fill="#FF7500"/>
<path d="M101.393 96.8727C102.004 97.2285 102.64 97.5511 102.64 98.4943C102.64 99.5533 101.67 99.9587 100.855 99.9587C100.251 99.9587 99.8763 99.7932 99.6399 99.6443C99.5012 99.3382 99.3952 98.759 99.3952 98.2626L99.6399 98.2047C99.7214 98.7673 100.007 99.7022 101.067 99.7022C101.605 99.7022 101.996 99.3465 101.996 98.7342C101.996 98.1634 101.523 97.7662 100.92 97.4932L100.423 97.2202C99.9823 96.9803 99.5746 96.4921 99.5746 95.9047C99.5746 94.945 100.366 94.5479 101.181 94.5479C101.662 94.5479 102.045 94.672 102.249 94.7961C102.314 95.0443 102.322 95.6814 102.322 95.8799H102.127C102.045 95.4911 101.923 94.8044 101.05 94.8044C100.602 94.8044 100.211 95.1353 100.211 95.6648C100.211 96.1281 100.545 96.3763 100.961 96.6328L101.385 96.8727H101.393Z" fill="#FF7500"/>
<path d="M60.0041 0C43.4763 0 30.0714 13.6014 30.0714 30.3715C30.0714 47.1416 43.4763 60.7512 60.0041 60.7512C76.5319 60.7512 89.9368 47.1498 89.9368 30.3715C89.9368 13.5931 76.5319 0 60.0041 0ZM59.5882 12.6251C60.5341 13.3036 61.3658 14.1309 62.4013 15.1071C62.597 15.2809 62.7764 15.496 63.4613 15.2561C64.8638 14.8341 68.0764 13.2291 70.3758 13.014C71.4194 12.8733 71.6967 13.014 72.3245 13.5848C73.5313 14.6273 74.4282 15.3967 75.1702 16.224C72.7974 16.4971 72.031 16.6956 71.5173 16.8197L71.2727 16.8776H71.2237C70.1474 17.1672 69.8131 17.9201 69.7234 18.2345C69.6827 18.3668 69.6501 18.5489 69.6501 18.764C69.6501 19.1114 69.7642 19.5499 70.0985 20.005C70.6938 20.9895 71.0281 21.6679 71.2401 22.1809C69.0222 22.8758 66.5924 23.819 65.5242 24.3071C64.8638 24.6132 64.3827 25.2089 64.2441 25.9039C64.2196 26.0114 64.2033 26.1521 64.2033 26.3093C64.2033 26.7395 64.3338 27.3269 64.8638 27.906C66.5027 29.6848 68.3618 33.747 68.3618 38.2064C68.3618 39.1743 68.2721 40.1589 68.0764 41.1517C67.155 45.7847 64.081 49.3092 58.9441 51.6423C56.2778 52.8502 53.5625 53.1067 50.8147 53.0074C50.9696 52.9908 51.1246 52.9743 51.2713 52.9577C56.4327 52.3207 60.053 50.5088 62.5644 45.9833C66.0298 39.7369 63.4042 32.0758 58.2102 27.7323C56.7344 26.4996 55.0302 25.5481 53.3913 24.5553C52.9755 24.3071 52.7472 23.9348 53.269 23.2978C54.117 22.0733 55.5358 20.1704 57.9004 18.2593C58.3896 17.9035 58.1858 17.6222 57.9738 17.341C57.1339 16.6377 56.5795 16.2075 55.5358 15.5705C54.9813 15.2892 54.753 14.9913 55.1852 14.5859C55.707 14.1061 56.5224 13.3863 58.4956 12.5341C58.9115 12.2694 59.3518 12.4349 59.5964 12.6417L59.5882 12.6251ZM40.1006 18.0276C40.5083 17.2003 41.4786 15.3636 42.351 14.255C42.563 13.9902 42.7424 13.8827 43.2072 13.9654C44.047 14.1143 45.5392 14.7431 47.4798 15.2974C47.8386 15.3967 48.0506 15.3967 48.3522 15.0492C49.1432 14.1474 51.3773 12.0626 55.0058 10.532C55.4135 10.3582 55.9598 10.35 56.4572 10.5982C56.8975 10.8133 57.3785 11.0284 57.9493 11.3179C56.2289 12.1039 55.3319 12.8154 54.6307 13.4607C54.0355 14.0151 53.905 14.6025 53.905 15.0161C53.905 15.1154 53.905 15.1982 53.9213 15.2726C54.0192 15.9593 54.4595 16.5136 55.2259 16.9356L55.3238 16.9935C55.2912 16.9769 55.2585 16.9521 55.2259 16.9356C55.7804 17.2748 56.1718 17.5395 56.555 17.8208C54.5899 19.5582 53.3342 21.2377 52.5189 22.4125C51.9155 23.1902 51.8747 23.8852 51.9481 24.3402C52.0215 24.7952 52.2824 25.4323 53.0896 25.9204L53.9132 26.4168C55.283 27.2359 56.5795 28.0136 57.721 28.965C62.1404 32.6715 64.9371 39.4556 61.7164 45.2635C59.5556 49.1603 56.4245 51.1707 51.573 51.7664C49.8036 51.9898 48.1158 51.8326 46.5584 51.4272C47.2026 51.5099 47.863 51.5513 48.5561 51.5347C52.209 51.4685 56.0413 50.1944 58.039 47.0092C63.0291 39.042 57.297 30.8017 49.5346 28.1956C47.7733 27.5999 44.895 26.9629 42.6119 26.6733C41.7721 26.5657 41.5683 26.301 41.8292 25.7219C42.2858 24.696 43.199 22.7104 44.8461 20.187C44.9195 20.0794 44.8869 19.7981 44.5689 19.7071C43.729 19.4672 41.9841 18.9873 40.5816 18.7722C40.0843 18.6978 39.8967 18.4579 40.1087 18.0442L40.1006 18.0276ZM64.1136 57.7232C46.8356 60.412 38.054 47.2409 38.054 47.2409C42.0167 51.1376 48.7599 57.4667 58.9848 52.6682C73.833 45.9254 69.4544 30.8762 65.4019 26.4665C64.9127 25.937 65.2307 25.4985 65.5732 25.333C66.7391 24.7952 69.8376 23.5956 72.2838 22.9255C72.561 22.8345 72.6181 22.6938 72.4713 22.3381C72.2593 21.7176 72.0228 20.7827 70.7998 18.7805C70.4165 18.3586 70.5878 18.1104 71.0118 18.0028C71.5499 17.887 71.9984 17.6719 75.0887 17.3327C75.423 17.283 75.7817 17.4154 75.9285 17.6884C76.589 18.8798 77.0701 20.0877 77.5348 21.6431C77.5837 21.8003 77.8202 22.1147 78.0893 22.1229C79.2227 22.1726 83.324 22.1974 85.4685 22.6359C85.6397 22.6773 86.0148 22.8841 86.1045 23.1323C86.6834 24.878 87.9473 33.3003 84.2943 42.1941C80.1114 52.3786 71.9984 56.4822 64.1218 57.7149L64.1136 57.7232Z" fill="#FF7500"/>
</svg>
