<svg width="463" height="60" viewBox="0 0 463 60" fill="none" xmlns="http://www.w3.org/2000/svg">
<path d="M204.597 60H30.003C13.4307 60 0 46.5693 0 30.003C0 13.4307 13.4307 0 30.003 0H182.612L204.597 60Z" fill="white"/>
<path d="M186.338 0H449.534C456.895 0 462.861 5.96651 462.861 13.3272V46.6728C462.861 54.0335 456.895 60 449.534 60H208.322L186.338 0Z" fill="#173748"/>
<path d="M62.6311 16.7729H53.3186C53.116 16.7729 52.9539 16.935 52.9539 17.1376C52.9539 17.3267 53.1025 17.4888 53.2916 17.5023L54.1087 17.5698C55.358 17.6981 55.358 17.8602 55.358 21.7635V32.9129C55.358 36.823 55.358 36.9783 54.1087 37.1066L53.2781 37.1741C53.0957 37.1876 52.9539 37.3429 52.9539 37.5253V37.5523C52.9539 37.7481 53.1092 37.9035 53.3051 37.9035H60.8956C61.0914 37.9035 61.2467 37.7481 61.2467 37.5523V37.5253C61.2467 37.3429 61.1049 37.1876 60.9226 37.1741L60.092 37.1066C58.3294 36.9783 58.3294 36.8162 58.3294 32.9129V18.083C58.7413 18.002 59.1735 17.921 59.6057 17.8737C60.3756 17.8399 61.2805 17.8264 61.6384 17.8264C64.522 17.8264 67.0544 18.9812 67.0544 22.7292C67.0544 27.4091 63.6103 28.1587 62.1382 28.206C62.1044 28.206 61.5304 28.206 61.1454 28.206C60.9496 28.206 60.7943 28.3613 60.7943 28.5571C60.7943 28.753 60.9496 28.9083 61.1454 28.9083H62.5366C65.5485 28.9083 70.4175 26.8891 70.4175 22.5333C70.4175 17.2456 65.6768 16.7662 62.6311 16.7662" fill="#FF7500"/>
<path d="M81.9585 37.3361C87.388 37.3361 89.4342 32.6697 89.4342 28.01C89.4342 21.9727 86.4291 17.4076 81.4183 17.4076C76.4074 17.4076 73.8142 21.3987 73.8142 26.9295C73.8142 33.4463 77.1368 37.3428 81.9585 37.3428M92.7433 27.3617C92.7433 33.4598 87.8 38.3963 81.7086 38.3963C75.6173 38.3963 70.674 33.453 70.674 27.3617C70.674 21.2704 75.6173 16.3271 81.7086 16.3271C87.8 16.3271 92.7433 21.2704 92.7433 27.3617Z" fill="#FF7500"/>
<path d="M101.327 25.7747C103.859 27.2131 106.486 28.5638 106.486 32.4063C106.486 36.7283 102.481 38.3963 99.0846 38.3963C96.5859 38.3963 95.0462 37.721 94.0535 37.1132C93.4795 35.8639 93.027 33.4935 93.027 31.4744C93.5673 31.3393 94.1143 31.6635 94.2426 32.2105C94.7761 34.4727 96.174 37.3428 99.976 37.3428C102.184 37.3428 103.819 35.9044 103.819 33.4058C103.819 31.0692 101.867 29.4687 99.3682 28.3409L97.3153 27.2199C95.4919 26.2272 93.7901 24.2418 93.7901 21.8377C93.7901 17.9276 97.0587 16.2933 100.455 16.2933C102.441 16.2933 104.041 16.8066 104.879 17.3198C105.135 18.3463 105.196 20.9395 105.196 21.7431C104.737 21.7431 104.339 21.4257 104.237 20.98C103.866 19.3863 103.042 17.3536 99.9422 17.3536C98.0851 17.3536 96.4509 18.6974 96.4509 20.8449C96.4509 22.7358 97.8285 23.7623 99.5573 24.782L101.32 25.7747H101.327Z" fill="#FF7500"/>
<path d="M106.466 37.5522C106.466 37.3631 106.615 37.201 106.804 37.1875L107.621 37.12C108.87 36.9917 108.87 36.8296 108.87 32.9263V21.7769C108.87 17.8668 108.87 17.7115 107.621 17.5832L106.804 17.5157C106.615 17.5021 106.466 17.3401 106.466 17.151C106.466 16.9484 106.628 16.7863 106.831 16.7863H113.881C114.084 16.7863 114.246 16.9484 114.246 17.151C114.246 17.3401 114.097 17.5021 113.908 17.5157L113.091 17.5832C111.842 17.7115 111.842 17.8736 111.842 21.7769V32.9263C111.842 36.8363 111.842 36.9917 113.091 37.12L113.908 37.1875C114.097 37.201 114.246 37.3631 114.246 37.5522C114.246 37.7548 114.084 37.9168 113.881 37.9168H106.831C106.628 37.9168 106.466 37.7548 106.466 37.5522Z" fill="#FF7500"/>
<path d="M120.525 37.2146L121.714 37.12C123.476 36.9917 123.476 36.8296 123.476 32.9263V17.6778H121.808C117.439 17.6778 117.236 18.1302 116.588 21.5203C116.547 21.7229 116.372 21.8715 116.163 21.8715C115.933 21.8715 115.744 21.6959 115.73 21.4663C115.71 21.1489 115.69 20.7234 115.69 20.4668C115.69 19.5079 115.784 18.5354 115.886 17.7791C115.96 17.205 116.453 16.7796 117.027 16.7796H132.897C133.478 16.7796 133.964 17.205 134.038 17.7791C134.139 18.5354 134.234 19.5079 134.234 20.4668C134.234 20.7234 134.207 21.1489 134.193 21.4663C134.18 21.6959 133.991 21.8715 133.761 21.8715C133.552 21.8715 133.376 21.7229 133.336 21.5203C132.687 18.1235 132.485 17.6778 128.116 17.6778H126.448V32.9263C126.448 36.8364 126.448 36.9917 128.244 37.12L129.399 37.2146V37.9169H120.525V37.2146Z" fill="#FF7500"/>
<path d="M135.673 37.5522C135.673 37.3631 135.821 37.201 136.01 37.1875L136.828 37.12C138.077 36.9917 138.077 36.8296 138.077 32.9263V21.7769C138.077 17.8668 138.077 17.7115 136.828 17.5832L136.01 17.5157C135.821 17.5021 135.673 17.3401 135.673 17.151C135.673 16.9484 135.835 16.7863 136.037 16.7863H143.088C143.29 16.7863 143.452 16.9484 143.452 17.151C143.452 17.3401 143.304 17.5021 143.115 17.5157L142.298 17.5832C141.048 17.7115 141.048 17.8736 141.048 21.7769V32.9263C141.048 36.8363 141.048 36.9917 142.298 37.12L143.115 37.1875C143.304 37.201 143.452 37.3631 143.452 37.5522C143.452 37.7548 143.29 37.9168 143.088 37.9168H136.037C135.835 37.9168 135.673 37.7548 135.673 37.5522Z" fill="#FF7500"/>
<path d="M178.71 37.0389C177.88 36.8769 177.555 36.1408 177.076 34.8577L170.12 16.7188C169.918 16.192 169.175 16.1853 168.965 16.7053C168.675 17.4143 168.378 18.1707 168.236 18.5151L161.571 34.7226C160.801 36.5797 160.639 36.9309 159.423 37.1267L159.133 37.174C158.951 37.201 158.815 37.3631 158.815 37.5454C158.815 37.7615 158.984 37.9303 159.194 37.9303H165.17C165.379 37.9303 165.548 37.7615 165.548 37.5522C165.548 37.3631 165.406 37.2078 165.224 37.1807L163.63 36.9714C163.279 36.9376 162.861 36.8431 162.861 36.2353C162.861 35.9787 163.117 35.1143 163.502 34.0878L165.136 29.6375C165.136 29.6375 165.15 29.6308 165.15 29.624H172.045C172.045 29.624 172.052 29.624 172.058 29.6308L174.3 35.6883C174.361 35.9112 174.489 36.134 174.489 36.3636C174.489 36.7148 174.071 36.8769 173.497 36.9714L172.362 37.174C172.18 37.2078 172.052 37.3631 172.052 37.5454V37.5589C172.052 37.7683 172.22 37.9371 172.43 37.9371H179.622C179.831 37.9371 180 37.7683 180 37.5589C180 37.3698 179.865 37.2078 179.683 37.1807L178.724 37.0389H178.71ZM168.587 20.6626L171.532 28.4152H165.542L168.587 20.6626Z" fill="#FF7500"/>
<path d="M66.9126 46.4462L66.6559 46.3921C66.6087 46.3786 66.5546 46.4056 66.5344 46.4529L66.4736 46.6217C66.2035 47.3511 65.9198 48.1007 64.5355 48.1007C62.7661 48.1007 62.1448 46.4799 62.1448 45.0955C62.1448 43.414 63.0498 42.4078 64.5692 42.4078C65.9806 42.4078 66.1832 43.3195 66.2778 43.7584C66.2845 43.7989 66.2913 43.8327 66.298 43.8597C66.3115 43.9137 66.3656 43.9475 66.4196 43.934L66.6762 43.88C66.7235 43.8665 66.7572 43.8259 66.7572 43.7787C66.7572 43.333 66.6965 42.7725 66.6019 42.3538C66.6019 42.3267 66.5816 42.3065 66.5546 42.2862C66.2913 42.1242 65.5484 41.881 64.5692 41.881C62.8944 41.881 60.936 42.7657 60.936 45.2644C60.936 47.3578 62.2867 48.6139 64.549 48.6139C65.4269 48.6139 66.2237 48.3911 66.5411 48.2425C66.5681 48.229 66.5816 48.2087 66.5952 48.1885C66.818 47.628 66.9328 47.1687 66.9868 46.5542C66.9868 46.5002 66.9598 46.4529 66.9058 46.4462" fill="#FF7500"/>
<path d="M71.3366 41.881C69.0338 41.881 67.8317 43.5963 67.8317 45.2913C67.8317 47.3038 69.1351 48.6071 71.161 48.6071C73.1869 48.6071 74.6456 47.2025 74.6456 45.1833C74.6456 42.9007 72.9843 41.8743 71.3366 41.8743M71.3366 48.0939C69.9319 48.0939 69.027 46.9256 69.027 45.1158C69.027 43.468 69.8712 42.401 71.1745 42.401C72.4779 42.401 73.4436 43.6233 73.4436 45.4399C73.4436 46.723 72.8898 48.1007 71.3366 48.1007" fill="#FF7500"/>
<path d="M83.0662 48.0601L82.7826 48.0061C82.607 47.9791 82.5192 47.925 82.499 47.8778C82.4584 47.7967 82.3842 47.1957 82.3301 46.0612L82.2423 44.4269C82.2086 43.7584 82.1681 43.1438 82.1478 42.7049C82.1275 42.3605 82.114 42.0836 82.114 42.0498C82.114 42.016 82.1005 41.9823 82.0735 41.9688C82.0465 41.9485 82.0127 41.9418 81.979 41.9553L81.7359 42.0431C81.7359 42.0431 81.6818 42.0768 81.6751 42.1038C81.513 42.536 79.6761 46.0477 79.1764 46.9323C78.9671 46.5474 78.5079 45.6897 78.0284 44.7848C77.3666 43.549 76.6845 42.2659 76.5292 42.0025C76.5022 41.962 76.4549 41.9418 76.4076 41.9553L76.151 42.0431C76.1105 42.0566 76.0835 42.0971 76.0835 42.1376C76.0835 42.3402 76.043 43.0223 76.0024 43.6233L75.8269 46.4326C75.7458 47.6211 75.6715 47.8778 75.6445 47.9183C75.6175 47.9453 75.55 47.9791 75.3947 48.0128L75.1583 48.0668C75.111 48.0804 75.0773 48.1209 75.0773 48.1681V48.3775C75.0773 48.4315 75.1245 48.4788 75.1786 48.4788H77.137C77.191 48.4788 77.2383 48.4315 77.2383 48.3775V48.1681C77.2383 48.1141 77.1977 48.0736 77.1505 48.0668L76.7656 48.0128C76.4211 47.9791 76.4144 47.925 76.4144 47.351C76.4144 47.1012 76.5089 45.1563 76.5562 44.2446C76.59 44.3121 76.6237 44.3729 76.6575 44.4404C77.3261 45.7168 78.5146 47.9993 78.7172 48.4248C78.7375 48.4585 78.7712 48.4855 78.8117 48.4855C78.8253 48.4855 78.8388 48.4855 78.8523 48.4788L79.1156 48.3572C79.1156 48.3572 79.1562 48.3302 79.1629 48.31C79.1899 48.2627 79.2102 48.2087 79.2304 48.1479C79.2507 48.1006 79.271 48.0466 79.2912 48.0061C79.5276 47.5401 79.7639 47.0741 79.9935 46.6284C80.4933 45.6492 80.9457 44.7646 81.1889 44.2581C81.2024 44.5215 81.2226 44.8591 81.2429 45.2238C81.2902 46.0071 81.3374 46.8986 81.3374 47.4861C81.3374 47.9048 81.3104 47.9791 80.9795 48.0196L80.6081 48.0736C80.5608 48.0804 80.5203 48.1276 80.5203 48.1749V48.3842C80.5203 48.4383 80.5676 48.4855 80.6216 48.4855H83.0392C83.0932 48.4855 83.1405 48.4383 83.1405 48.3842V48.1749C83.1405 48.1276 83.1067 48.0804 83.0595 48.0736" fill="#FF7500"/>
<path d="M86.5642 48.0601L86.2198 48.0331C85.9362 48.0106 85.7944 47.6324 85.7944 46.8986V42.6036C85.9564 42.5699 86.1185 42.5496 86.2806 42.5496C87.2733 42.5496 87.773 43.002 87.773 43.8935C87.773 45.3319 86.6115 45.4062 86.3819 45.4062C86.3279 45.4062 86.2806 45.4534 86.2806 45.5075V45.7168C86.2806 45.7708 86.3279 45.8181 86.3819 45.8181H86.544C87.5637 45.8181 88.9751 45.1293 88.9751 43.8327C88.9751 42.0296 87.1652 42.0296 86.5777 42.0296H84.1128C84.0588 42.0296 84.0115 42.0769 84.0115 42.1309V42.3402C84.0115 42.3943 84.0521 42.4348 84.1061 42.4415L84.4437 42.4686C84.6283 42.4866 84.7206 42.8647 84.7206 43.6031V46.8919C84.7206 47.6302 84.6283 48.0084 84.4437 48.0264L84.1061 48.0534C84.0521 48.0534 84.0115 48.1007 84.0115 48.1547V48.364C84.0115 48.4181 84.0588 48.4653 84.1128 48.4653H86.5642C86.6182 48.4653 86.6655 48.4181 86.6655 48.364V48.1547C86.6655 48.1007 86.625 48.0534 86.571 48.0534" fill="#FF7500"/>
<path d="M94.6952 48.0601L94.3238 48.0061C94.1415 47.9723 94.0604 47.8035 93.9186 47.4253L91.8116 41.9485C91.7914 41.8945 91.7306 41.8675 91.6833 41.8878L91.4065 41.9823C91.4065 41.9823 91.3592 42.0161 91.3457 42.0363C91.2714 42.2052 91.2039 42.3875 91.1296 42.5631L89.1509 47.3781C88.9281 47.9251 88.8943 47.9791 88.5972 48.0264L88.4148 48.0534C88.3675 48.0601 88.327 48.1074 88.327 48.1547V48.364C88.327 48.418 88.3743 48.4653 88.4283 48.4653H90.4137C90.4678 48.4653 90.515 48.418 90.515 48.364V48.1547C90.515 48.1006 90.4745 48.0601 90.4272 48.0534L89.8532 47.9791C89.7452 47.9723 89.7182 47.9453 89.7182 47.8643C89.7182 47.817 89.7722 47.6009 89.9005 47.2633L90.3597 46.0072C91.1296 45.8789 91.6833 45.9059 92.2506 46.0072L92.8921 47.7292C92.8921 47.7292 92.9056 47.7765 92.9192 47.8035C92.9327 47.8373 92.9462 47.8778 92.9462 47.898C92.9462 47.898 92.9462 47.9453 92.7368 47.9791L92.3114 48.0534C92.2641 48.0601 92.2236 48.1074 92.2236 48.1547V48.364C92.2236 48.418 92.2709 48.4653 92.3249 48.4653H94.6682C94.7222 48.4653 94.7695 48.418 94.7695 48.364V48.1547C94.7695 48.1006 94.729 48.0601 94.6817 48.0534M92.0277 45.4399C91.8116 45.4197 91.5685 45.4129 91.2781 45.4129C91.062 45.4129 90.8392 45.4264 90.6231 45.4467H90.5758L91.3187 43.5625L92.0345 45.4467L92.0277 45.4399Z" fill="#FF7500"/>
<path d="M101.921 42.0228H99.8816C99.8276 42.0228 99.7803 42.0701 99.7803 42.1241V42.3334C99.7803 42.3875 99.8209 42.4347 99.8749 42.4347L100.213 42.4618C100.624 42.4955 100.638 42.6373 100.638 43.7043V46.7027C99.5372 45.6087 96.9778 42.948 96.2147 41.9755C96.1877 41.9418 96.1404 41.9283 96.0931 41.9418L95.877 42.0296C95.8365 42.0431 95.8095 42.0836 95.8095 42.1241V46.7838C95.8095 47.8305 95.7285 48.0061 95.4718 48.0263L95.1342 48.0533C95.0802 48.0533 95.0396 48.1006 95.0396 48.1546V48.364C95.0396 48.418 95.0869 48.4653 95.1409 48.4653H97.1804C97.2344 48.4653 97.2817 48.418 97.2817 48.364V48.1546C97.2817 48.1006 97.2412 48.0533 97.1871 48.0533L96.8495 48.0263C96.4646 47.9858 96.451 47.8507 96.451 46.7838V43.8529L99.1118 46.6622C99.8884 47.4591 100.415 48.0196 100.706 48.3235L100.888 48.5126C100.888 48.5126 100.935 48.5463 100.962 48.5463C100.976 48.5463 100.989 48.5463 101.003 48.5396L101.212 48.4518C101.253 48.4383 101.273 48.3977 101.273 48.3572V43.6976C101.273 42.6576 101.354 42.4753 101.583 42.455L101.921 42.428C101.975 42.428 102.016 42.3807 102.016 42.3267V42.1173C102.016 42.0633 101.968 42.016 101.914 42.016" fill="#FF7500"/>
<path d="M97.2809 41.5028C97.2809 41.5028 97.3282 41.5298 97.3484 41.5298C97.3484 41.5298 97.3484 41.5298 97.3552 41.5298C97.3822 41.5298 97.4092 41.5163 97.4295 41.4893L97.4497 41.469C97.5375 41.3542 97.7199 41.1178 97.9157 41.1178C98.044 41.1178 98.2534 41.1921 98.4695 41.2732C98.7463 41.3745 99.057 41.4893 99.3271 41.4893C99.7255 41.4893 100.063 41.2056 100.32 40.6451C100.34 40.6046 100.327 40.5573 100.293 40.5236L100.171 40.4088C100.171 40.4088 100.124 40.375 100.09 40.3818C100.063 40.3818 100.036 40.402 100.016 40.4223L99.9889 40.456C99.9079 40.5708 99.7661 40.7802 99.577 40.7802C99.3406 40.7802 99.0907 40.6789 98.8881 40.5979L98.8274 40.5776C98.618 40.4966 98.3952 40.4155 98.1723 40.4155C97.6321 40.4155 97.2742 41.0098 97.1458 41.2394L97.1323 41.2597C97.1053 41.3002 97.1121 41.3542 97.1526 41.388L97.2877 41.5095L97.2809 41.5028Z" fill="#FF7500"/>
<path d="M104.743 42.0228H102.447C102.393 42.0228 102.346 42.0701 102.346 42.1241V42.3335C102.346 42.3875 102.386 42.4348 102.44 42.4348L102.778 42.4618C102.963 42.4798 103.055 42.858 103.055 43.5963V46.8851C103.055 47.6234 102.963 48.0016 102.778 48.0196L102.44 48.0466C102.386 48.0466 102.346 48.0939 102.346 48.1479V48.3573C102.346 48.4113 102.393 48.4586 102.447 48.4586H104.743C104.797 48.4586 104.845 48.4113 104.845 48.3573V48.1479C104.845 48.0939 104.804 48.0466 104.75 48.0466L104.412 48.0196C104.228 48.0016 104.135 47.6234 104.135 46.8851V43.5963C104.135 42.858 104.228 42.4798 104.412 42.4618L104.75 42.4348C104.804 42.4348 104.845 42.3875 104.845 42.3335V42.1241C104.845 42.0701 104.797 42.0228 104.743 42.0228Z" fill="#FF7500"/>
<path d="M104.71 40.4088C104.608 40.3615 104.494 40.3547 104.385 40.3953L104.264 40.4425C103.967 40.5573 103.602 40.7059 103.075 41.0098C103.035 41.0301 103.015 41.0773 103.028 41.1246L103.082 41.3745C103.082 41.3745 103.109 41.4285 103.129 41.442C103.143 41.4487 103.163 41.4555 103.183 41.4555C103.19 41.4555 103.204 41.4555 103.217 41.4555C103.386 41.4015 103.926 41.2934 104.358 41.2056L104.622 41.1516C104.73 41.1313 104.818 41.0706 104.872 40.976C104.926 40.8815 104.946 40.7734 104.919 40.6586C104.892 40.5506 104.818 40.4628 104.716 40.4088" fill="#FF7500"/>
<path d="M111.659 48.0601L111.288 48.0061C111.106 47.9723 111.024 47.8035 110.883 47.4253L108.776 41.9485C108.755 41.8945 108.695 41.8675 108.647 41.8878L108.371 41.9823C108.371 41.9823 108.323 42.0161 108.31 42.0363C108.235 42.2187 108.154 42.4078 108.08 42.5968L106.115 47.3781C105.885 47.9251 105.858 47.9791 105.561 48.0264L105.379 48.0534C105.332 48.0601 105.291 48.1074 105.291 48.1547V48.364C105.291 48.418 105.338 48.4653 105.392 48.4653H107.378C107.432 48.4653 107.479 48.418 107.479 48.364V48.1547C107.479 48.1006 107.439 48.0601 107.391 48.0534L106.817 47.9791C106.709 47.9723 106.682 47.9453 106.682 47.8643C106.682 47.817 106.736 47.6009 106.865 47.2633L107.324 46.0072C108.094 45.8789 108.647 45.9059 109.215 46.0072L109.856 47.7292C109.856 47.7292 109.87 47.7765 109.883 47.8035C109.897 47.8373 109.91 47.871 109.91 47.898C109.91 47.898 109.91 47.9453 109.701 47.9791L109.275 48.0534C109.228 48.0601 109.188 48.1074 109.188 48.1547V48.364C109.188 48.418 109.235 48.4653 109.289 48.4653H111.632C111.686 48.4653 111.734 48.418 111.734 48.364V48.1547C111.734 48.1006 111.693 48.0601 111.646 48.0534M108.992 45.4399C108.776 45.4197 108.533 45.4129 108.242 45.4129C108.026 45.4129 107.803 45.4264 107.587 45.4467H107.54L108.283 43.5625L108.999 45.4467L108.992 45.4399Z" fill="#FF7500"/>
<path d="M118.23 42.0228H115.13C115.076 42.0228 115.029 42.0701 115.029 42.1241V42.3334C115.029 42.3874 115.07 42.4347 115.124 42.4347L115.461 42.4617C115.646 42.4797 115.738 42.8579 115.738 43.5963V46.885C115.738 47.6234 115.646 48.0015 115.461 48.0196L115.124 48.0466C115.07 48.0466 115.029 48.0938 115.029 48.1479V48.3572C115.029 48.4112 115.076 48.4585 115.13 48.4585H117.663C120.107 48.4585 121.566 47.1687 121.566 45.0077C121.566 43.1303 120.317 42.0093 118.23 42.0093M120.371 45.2575C120.371 47.0201 119.479 47.952 117.798 47.952C117.474 47.952 117.143 47.898 116.825 47.8372V42.6238C117.116 42.5833 117.42 42.5428 117.717 42.5428C119.479 42.5428 120.378 43.4544 120.378 45.2575" fill="#FF7500"/>
<path d="M126.928 46.696L126.692 46.6555C126.638 46.642 126.591 46.6825 126.577 46.7298L126.564 46.7905C126.388 47.5131 126.273 47.9926 124.889 47.9926C124.578 47.9926 124.247 47.9386 123.964 47.8845V45.3521H124.7C125.463 45.3521 125.517 45.3724 125.564 45.6628L125.611 45.9869C125.618 46.0342 125.666 46.0747 125.713 46.0747H125.956C126.01 46.0747 126.057 46.0274 126.057 45.9734V44.2716C126.057 44.2176 126.01 44.1703 125.956 44.1703H125.713C125.659 44.1703 125.618 44.2108 125.611 44.2581L125.564 44.5823C125.524 44.8726 125.463 44.8929 124.7 44.8929H123.964V42.4955H124.646C125.882 42.4955 125.902 42.5766 126.104 43.5693C126.118 43.6233 126.165 43.6571 126.219 43.6503L126.449 43.6098C126.496 43.6031 126.537 43.5558 126.537 43.5085C126.537 43.4815 126.537 43.4477 126.537 43.414C126.537 43.3532 126.55 43.2654 126.55 43.1303C126.55 42.6914 126.483 42.3335 126.442 42.1106C126.435 42.0633 126.388 42.0228 126.341 42.0228H122.269C122.215 42.0228 122.167 42.0701 122.167 42.1241V42.3335C122.167 42.3875 122.208 42.428 122.262 42.4348L122.6 42.4618C122.784 42.4798 122.876 42.858 122.876 43.5963V46.8851C122.876 47.6234 122.784 48.0016 122.6 48.0196L122.262 48.0466C122.208 48.0466 122.167 48.0939 122.167 48.1479V48.3573C122.167 48.4113 122.215 48.4586 122.269 48.4586H126.597C126.645 48.4586 126.685 48.4315 126.699 48.3843C126.861 47.8643 126.989 47.4118 127.016 46.7905C127.016 46.7365 126.982 46.6892 126.928 46.6825" fill="#FF7500"/>
<path d="M132.971 44.7375L132.89 44.6902L132.37 44.3999C131.81 44.069 131.506 43.7988 131.506 43.3261C131.506 42.7183 131.972 42.4009 132.431 42.4009C133.404 42.4009 133.545 43.1235 133.647 43.6165C133.653 43.6638 133.701 43.6975 133.748 43.6975H133.984C134.038 43.6975 134.086 43.6503 134.086 43.5962C134.086 43.4004 134.072 42.59 133.991 42.2659C133.984 42.2389 133.971 42.2186 133.944 42.2051C133.694 42.0498 133.208 41.8877 132.586 41.8877C131.634 41.8877 130.52 42.3402 130.52 43.6232C130.52 44.4269 131.107 45.0279 131.614 45.3048L132.228 45.6424C133.059 46.0139 133.485 46.4866 133.485 47.0403C133.485 47.6819 133.079 48.1006 132.451 48.1006C131.31 48.1006 130.925 47.1686 130.804 46.3853C130.804 46.3583 130.783 46.3313 130.756 46.3177C130.729 46.3042 130.702 46.2975 130.675 46.3042L130.371 46.3785C130.324 46.392 130.29 46.4325 130.29 46.4798C130.29 47.0808 130.419 47.7967 130.601 48.1884C130.608 48.2086 130.621 48.2221 130.642 48.2356C131.074 48.499 131.573 48.6273 132.181 48.6273C133.322 48.6273 134.471 48.0465 134.471 46.7567C134.471 45.6019 133.714 45.1697 132.978 44.7578" fill="#FF7500"/>
<path d="M139.968 46.696L139.731 46.6555C139.677 46.642 139.63 46.6825 139.617 46.7298L139.603 46.7905C139.427 47.5131 139.313 47.9926 137.935 47.9926C137.624 47.9926 137.293 47.9386 137.01 47.8845V45.3521H137.746C138.509 45.3521 138.563 45.3724 138.61 45.6628L138.658 45.9869C138.664 46.0342 138.712 46.0747 138.759 46.0747H139.002C139.056 46.0747 139.103 46.0274 139.103 45.9734V44.2716C139.103 44.2176 139.056 44.1703 139.002 44.1703H138.759C138.705 44.1703 138.664 44.2108 138.658 44.2581L138.61 44.5823C138.57 44.8726 138.509 44.8929 137.746 44.8929H137.01V42.4955H137.692C138.928 42.4955 138.948 42.5766 139.151 43.5693C139.164 43.6233 139.218 43.6571 139.265 43.6503L139.495 43.6098C139.542 43.6031 139.583 43.5558 139.583 43.5085C139.583 43.4815 139.583 43.4477 139.583 43.414C139.583 43.3532 139.596 43.2654 139.596 43.1303C139.596 42.6914 139.529 42.3335 139.488 42.1106C139.481 42.0633 139.434 42.0228 139.387 42.0228H135.315C135.261 42.0228 135.214 42.0701 135.214 42.1241V42.3335C135.214 42.3875 135.254 42.428 135.308 42.4348L135.646 42.4618C135.83 42.4798 135.923 42.858 135.923 43.5963V46.8851C135.923 47.6234 135.83 48.0016 135.646 48.0196L135.308 48.0466C135.254 48.0466 135.214 48.0939 135.214 48.1479V48.3573C135.214 48.4113 135.261 48.4586 135.315 48.4586H139.644C139.691 48.4586 139.731 48.4315 139.745 48.3843C139.907 47.8643 140.035 47.4118 140.062 46.7905C140.062 46.7365 140.028 46.6892 139.974 46.6825" fill="#FF7500"/>
<path d="M147.065 46.149H144.661C144.607 46.149 144.559 46.1963 144.559 46.2503V46.4596C144.559 46.5137 144.6 46.5609 144.654 46.5609L144.998 46.588C145.377 46.6105 145.566 46.9886 145.566 47.7225V47.9926C145.235 48.0669 144.836 48.0939 144.559 48.0939C142.662 48.0939 141.986 46.4731 141.986 45.0888C141.986 43.4072 142.891 42.401 144.411 42.401C145.822 42.401 146.025 43.3127 146.119 43.7516C146.126 43.7922 146.133 43.8259 146.14 43.8529C146.153 43.907 146.207 43.9407 146.261 43.9272L146.518 43.8732C146.565 43.8597 146.599 43.8192 146.599 43.7719C146.599 43.3262 146.538 42.7657 146.444 42.347C146.444 42.32 146.423 42.2997 146.396 42.2795C146.133 42.1174 145.39 41.8743 144.411 41.8743C142.736 41.8743 140.784 42.7589 140.784 45.2576C140.784 47.3848 142.135 48.6071 144.492 48.6071C145.579 48.6071 146.68 48.2087 146.889 48.1277C146.943 48.1074 146.97 48.0534 146.95 47.9994L146.882 47.79C146.869 47.7495 146.828 47.7157 146.781 47.7157H146.687C146.687 47.7157 146.653 47.7157 146.646 47.7157C146.633 47.682 146.633 47.5874 146.633 47.4794C146.633 46.6015 146.639 46.5947 146.72 46.5812L147.058 46.5542C147.112 46.5542 147.153 46.5069 147.153 46.4529V46.2435C147.153 46.1895 147.105 46.1422 147.051 46.1422" fill="#FF7500"/>
<path d="M153.893 42.0228H151.597C151.543 42.0228 151.496 42.0701 151.496 42.1241V42.3335C151.496 42.3875 151.536 42.4348 151.59 42.4348L151.928 42.4618C152.112 42.4798 152.205 42.858 152.205 43.5963V47.3983C152.076 47.5401 151.523 48.0939 150.597 48.0939C149.26 48.0939 149.01 47.3375 149.01 45.9464V43.6031C149.01 42.8647 149.103 42.4865 149.287 42.4685L149.625 42.4415C149.679 42.4415 149.719 42.3942 149.719 42.3402V42.1309C149.719 42.0769 149.672 42.0296 149.618 42.0296H147.322C147.268 42.0296 147.221 42.0769 147.221 42.1309V42.3402C147.221 42.3942 147.261 42.4415 147.315 42.4415L147.653 42.4685C147.838 42.4865 147.93 42.8647 147.93 43.6031V46.1017C147.93 47.3713 148.099 48.6139 150.152 48.6139C151.124 48.6139 151.826 48.2627 152.157 48.0939C152.225 48.0601 152.306 48.0196 152.326 48.0129C152.387 48.0129 152.434 48.0601 152.515 48.1547C152.542 48.1817 152.569 48.2154 152.603 48.2492L152.839 48.5193C152.839 48.5193 152.907 48.5599 152.947 48.5531L153.231 48.4653C153.272 48.4518 153.305 48.4113 153.305 48.364V43.5963C153.305 42.858 153.398 42.4798 153.582 42.4618L153.92 42.4348C153.974 42.4348 154.014 42.3875 154.014 42.3335V42.1241C154.014 42.0701 153.967 42.0228 153.913 42.0228" fill="#FF7500"/>
<path d="M160.417 48.0601C160.208 48.0601 160.059 48.0196 159.991 47.9791C159.809 47.8778 159.431 47.4186 158.978 46.6217C158.796 46.2976 158.587 45.8991 158.431 45.5953L158.323 45.3927C158.837 45.1293 159.593 44.5958 159.593 43.7044C159.593 42.0296 157.945 42.0296 157.324 42.0296H154.859C154.805 42.0296 154.758 42.0769 154.758 42.1309V42.3402C154.758 42.3943 154.798 42.4415 154.852 42.4415L155.19 42.4686C155.375 42.4866 155.467 42.8647 155.467 43.6031V46.8919C155.467 47.6302 155.375 48.0084 155.19 48.0264L154.852 48.0534C154.798 48.0534 154.758 48.1007 154.758 48.1547V48.364C154.758 48.4181 154.805 48.4653 154.859 48.4653H157.148C157.202 48.4653 157.25 48.4181 157.25 48.364V48.1547C157.25 48.1007 157.209 48.0534 157.155 48.0534L156.817 48.0264C156.637 48.0084 156.547 47.6302 156.547 46.8919V45.7438H156.797C156.986 45.7438 157.196 45.7438 157.317 45.8451C157.378 45.8924 157.527 46.0747 157.878 46.7433L158.256 47.4726C158.614 48.1277 159.107 48.4721 159.688 48.4721H160.417C160.471 48.4721 160.518 48.4248 160.518 48.3708V48.1614C160.518 48.1074 160.471 48.0601 160.417 48.0601ZM156.547 42.5969C156.709 42.5631 156.871 42.5428 157.034 42.5428C157.54 42.5428 158.398 42.7184 158.398 43.8867C158.398 44.7579 157.871 45.2779 156.986 45.2779H156.547V42.6036V42.5969Z" fill="#FF7500"/>
<path d="M163.819 41.881C161.517 41.881 160.315 43.5963 160.315 45.2913C160.315 47.3038 161.618 48.6071 163.644 48.6071C165.67 48.6071 167.135 47.2025 167.135 45.1833C167.135 42.9007 165.474 41.8743 163.826 41.8743M165.926 45.4399C165.926 46.723 165.373 48.1007 163.819 48.1007C162.415 48.1007 161.51 46.9324 161.51 45.1225C161.51 43.4748 162.354 42.4078 163.657 42.4078C164.961 42.4078 165.926 43.6301 165.926 45.4467" fill="#FF7500"/>
<path d="M170.546 44.7443L170.465 44.697L169.945 44.4066C169.384 44.0757 169.08 43.8056 169.08 43.3329C169.08 42.7251 169.546 42.4077 170.006 42.4077C170.978 42.4077 171.12 43.1303 171.221 43.6233C171.228 43.6705 171.275 43.7043 171.322 43.7043H171.559C171.613 43.7043 171.66 43.657 171.66 43.603C171.66 43.4072 171.647 42.5968 171.565 42.2726C171.559 42.2456 171.545 42.2254 171.518 42.2119C171.268 42.0565 170.782 41.8945 170.161 41.8945C169.209 41.8945 168.088 42.3469 168.088 43.63C168.088 44.4336 168.675 45.0347 169.182 45.3116L169.796 45.6492C170.627 46.0206 171.052 46.4934 171.052 47.0471C171.052 47.6887 170.647 48.1073 170.019 48.1073C168.871 48.1073 168.493 47.1754 168.371 46.3921C168.371 46.365 168.351 46.338 168.324 46.3245C168.297 46.311 168.27 46.3043 168.243 46.311L167.939 46.3853C167.892 46.3988 167.858 46.4393 167.858 46.4866C167.858 47.0809 167.986 47.8035 168.169 48.1951C168.175 48.2154 168.189 48.2289 168.209 48.2424C168.641 48.5058 169.148 48.6341 169.749 48.6341C170.89 48.6341 172.038 48.0533 172.038 46.7635C172.038 45.6087 171.282 45.1765 170.546 44.7645" fill="#FF7500"/>
<path d="M166.562 16.7728H160.181C159.978 16.7728 159.809 16.9349 159.809 17.1442V17.1578C159.809 17.3401 159.944 17.5022 160.127 17.5224L161.248 17.671C161.856 17.7655 162.497 17.9276 162.497 18.5692C162.497 19.5619 157.466 32.0214 156.73 33.946L151.186 19.6564C151.023 19.2715 150.767 18.5354 150.767 18.3733C150.767 17.7318 151.699 17.6372 152.205 17.5697L152.867 17.5089C153.056 17.4887 153.198 17.3333 153.198 17.1442C153.198 16.9417 153.036 16.7728 152.827 16.7728H145.587C145.385 16.7728 145.216 16.9349 145.216 17.1442C145.216 17.3333 145.358 17.4954 145.547 17.5157L146.141 17.5764C147.201 17.671 147.552 18.8595 148.032 20.0413L155.197 37.9371C155.447 38.5584 156.325 38.5517 156.568 37.9371C157.5 35.5398 159.188 31.2313 160.214 28.7596L162.396 23.5057C163.199 21.966 164.219 18.8933 164.928 18.191C165.185 17.9344 165.536 17.7453 165.887 17.6777L166.434 17.5494C166.603 17.5089 166.718 17.3603 166.718 17.1915V16.9484C166.718 16.8539 166.643 16.7796 166.549 16.7796" fill="#FF7500"/>
<path d="M26.5429 8.91888C14.8735 8.91888 5.40558 18.38 5.40558 30.0562C5.40558 41.7323 14.8667 51.1935 26.5429 51.1935C38.219 51.1935 47.6801 41.7323 47.6801 30.0562C47.6801 18.38 38.219 8.91888 26.5429 8.91888ZM26.2525 17.6979C26.921 18.1707 27.5086 18.7447 28.2379 19.42C28.373 19.5416 28.5013 19.6901 28.9807 19.5213C29.9734 19.2309 32.2425 18.1099 33.8633 17.9613C34.5993 17.86 34.7952 17.9613 35.2409 18.353C36.0918 19.0756 36.7266 19.6158 37.2466 20.1898C35.5718 20.3789 35.0315 20.514 34.6669 20.6085L34.4913 20.6491H34.4575C33.6944 20.8449 33.4648 21.3716 33.3973 21.5877C33.3703 21.6823 33.3433 21.8106 33.3433 21.9592C33.3433 22.2023 33.4243 22.5062 33.6607 22.8236C34.0861 23.5056 34.3157 23.9784 34.4643 24.3363C32.8976 24.8157 31.1823 25.4775 30.4259 25.8152C29.9599 26.0313 29.6155 26.4432 29.521 26.9227C29.5075 26.997 29.494 27.0983 29.494 27.2064C29.494 27.5102 29.5885 27.9154 29.9599 28.3206C31.1147 29.5632 32.4316 32.386 32.4316 35.4857C32.4316 36.161 32.3708 36.8431 32.229 37.5319C31.5807 40.7531 29.4062 43.2113 25.7798 44.832C23.8956 45.6762 21.9778 45.8517 20.0396 45.7842C20.1477 45.7774 20.2557 45.7639 20.3638 45.7504C24.0037 45.3047 26.5631 44.0419 28.3324 40.8949C30.7771 36.5527 28.92 31.2177 25.253 28.1991C24.213 27.3414 23.011 26.6796 21.8494 25.984C21.5591 25.8085 21.3902 25.5518 21.7617 25.1061C22.3627 24.2552 23.3621 22.9316 25.0369 21.6013C25.3813 21.3581 25.2328 21.1623 25.0842 20.9597C24.4967 20.4667 24.0982 20.1696 23.3621 19.7306C22.9705 19.5348 22.8084 19.3255 23.119 19.0418C23.4837 18.7042 24.0577 18.2044 25.4556 17.6169C25.7527 17.4346 26.0566 17.5494 26.2322 17.6912M12.4896 21.4594C12.78 20.8854 13.4621 19.6023 14.0833 18.8325C14.2319 18.6501 14.3602 18.5759 14.6911 18.6299C15.2854 18.7312 16.3389 19.1701 17.7098 19.5551C17.9664 19.6293 18.1082 19.6293 18.3311 19.3795C18.8916 18.7514 20.465 17.2995 23.0245 16.2393C23.3149 16.1177 23.6998 16.111 24.051 16.2865C24.3616 16.4351 24.6993 16.5837 25.1044 16.7863C23.8889 17.3333 23.2541 17.8263 22.7611 18.2787C22.3424 18.6636 22.2479 19.0756 22.2479 19.3592C22.2479 19.4267 22.2479 19.4875 22.2614 19.5348C22.3289 20.0143 22.6396 20.3992 23.1798 20.6896L23.2541 20.7301C23.2271 20.7166 23.2068 20.7031 23.1798 20.6896C23.5715 20.9192 23.8484 21.1083 24.1117 21.3041C22.7273 22.5129 21.8359 23.6812 21.2619 24.4983C20.8365 25.0386 20.8027 25.5248 20.8567 25.8422C20.9108 26.1596 21.0931 26.6053 21.6604 26.943L22.2411 27.2874C23.2136 27.8546 24.1252 28.3949 24.9289 29.0567C28.0488 31.6296 30.0275 36.3501 27.7517 40.3952C26.2255 43.11 24.0172 44.5079 20.5866 44.9198C19.3373 45.0751 18.1487 44.9603 17.0412 44.6834C17.4937 44.7375 17.9664 44.7712 18.4526 44.7645C21.0323 44.7172 23.7403 43.8325 25.145 41.6175C28.6701 36.0732 24.6182 30.3398 19.1414 28.53C17.8989 28.118 15.8662 27.6723 14.2589 27.4697C13.6714 27.3954 13.5228 27.2131 13.7052 26.8079C14.0293 26.0921 14.6709 24.7144 15.8324 22.9519C15.8864 22.8776 15.8594 22.6818 15.6366 22.6142C15.0423 22.4454 13.8132 22.1145 12.8205 21.9659C12.4693 21.9119 12.341 21.7498 12.4829 21.4594M29.4467 49.0797C17.2506 50.9503 11.0444 41.7864 11.0444 41.7864C13.8402 44.4944 18.6012 48.8974 25.827 45.5681C36.3146 40.8747 33.2217 30.4006 30.3516 27.3347C30.0072 26.9632 30.2301 26.6593 30.4732 26.5445C31.2971 26.1664 33.4851 25.3357 35.2071 24.8698C35.403 24.809 35.4435 24.7077 35.3422 24.4646C35.1936 24.0324 35.0248 23.3841 34.1604 21.9929C33.8903 21.6958 34.0118 21.527 34.309 21.4527C34.6871 21.3716 35.0045 21.2231 37.1858 20.9867C37.4221 20.9462 37.6788 21.0407 37.7733 21.2298C38.2393 22.0605 38.5769 22.9046 38.9078 23.9784C38.9416 24.0864 39.1104 24.3093 39.2995 24.316C40.1031 24.3498 42.9935 24.3633 44.5129 24.6739C44.6345 24.7009 44.8979 24.8428 44.9586 25.0183C45.3638 26.2339 46.262 32.0956 43.6823 38.2815C40.7312 45.3655 35.0045 48.2221 29.44 49.0797" fill="#FF7500"/>
<path d="M237.93 29.0473C237.321 30.198 236.347 31.1356 235.001 31.8601C233.656 32.5846 231.933 32.9499 229.832 32.9499H225.211L225.229 43.3H221.047L221.004 17.8205L229.808 17.8083C231.762 17.8083 233.418 18.1371 234.776 18.8068C236.134 19.4765 237.15 20.3837 237.826 21.5344C238.502 22.6851 238.837 23.9636 238.843 25.3822C238.843 26.679 238.538 27.9027 237.93 29.0534V29.0473ZM233.376 28.4507C234.155 27.7262 234.545 26.7094 234.545 25.3883C234.545 22.5998 232.962 21.2117 229.808 21.2178H225.187L225.199 29.5526H229.82C231.409 29.5405 232.596 29.1813 233.376 28.4568V28.4507Z" fill="white"/>
<path d="M259.756 34.6973L244.316 34.7216C244.438 36.335 245.041 37.6318 246.118 38.606C247.196 39.5801 248.517 40.0672 250.082 40.0672C252.328 40.0672 253.917 39.1174 254.843 37.2361H259.354C258.745 39.0869 257.643 40.609 256.042 41.8023C254.441 42.9895 252.456 43.5862 250.088 43.5923C248.158 43.5923 246.429 43.1661 244.894 42.3016C243.366 41.437 242.167 40.2133 241.296 38.6425C240.426 37.0656 239.987 35.2392 239.987 33.163C239.987 31.0869 240.401 29.2544 241.241 27.6775C242.082 26.1006 243.263 24.883 244.791 24.0245C246.319 23.1661 248.073 22.7338 250.051 22.7338C251.957 22.7338 253.655 23.1417 255.153 23.9697C256.645 24.7978 257.808 25.9667 258.642 27.4644C259.476 28.9682 259.896 30.6973 259.896 32.6516C259.896 33.4127 259.847 34.0946 259.75 34.7034L259.756 34.6973ZM255.531 31.3305C255.5 29.7901 254.952 28.5542 253.875 27.6288C252.797 26.7034 251.464 26.2407 249.875 26.2407C248.432 26.2407 247.196 26.7034 246.173 27.6227C245.15 28.542 244.541 29.7841 244.347 31.3487L255.531 31.3305Z" fill="white"/>
<path d="M276.992 23.6653C278.252 24.3228 279.238 25.2969 279.951 26.5937C280.663 27.8905 281.016 29.4552 281.022 31.2878L281.041 43.2087H276.894L276.876 31.921C276.876 30.1128 276.42 28.7246 275.512 27.7627C274.605 26.8007 273.369 26.3198 271.805 26.3198C270.24 26.3198 268.998 26.8068 268.085 27.7749C267.171 28.7429 266.715 30.131 266.715 31.9392L266.733 43.233H262.55L262.514 23.0321H266.697V25.3335C267.378 24.4994 268.255 23.854 269.315 23.3852C270.374 22.9164 271.506 22.6851 272.706 22.6851C274.295 22.6851 275.719 23.0077 276.98 23.6653H276.992Z" fill="white"/>
<path d="M287.951 42.6608C286.69 42.0885 285.692 41.3092 284.955 40.3168C284.219 39.3305 283.829 38.2224 283.774 36.9987H288.103C288.176 37.845 288.59 38.5634 289.333 39.1357C290.082 39.708 291.013 39.9941 292.139 39.9941C293.314 39.9941 294.222 39.7628 294.873 39.3122C295.518 38.8617 295.841 38.2772 295.841 37.571C295.841 36.816 295.476 36.2498 294.757 35.8845C294.033 35.5192 292.894 35.1174 291.324 34.6791C289.808 34.2651 288.572 33.8632 287.616 33.4736C286.66 33.0839 285.838 32.4873 285.138 31.6836C284.438 30.88 284.091 29.8145 284.085 28.4934C284.085 27.4157 284.401 26.4355 285.034 25.5406C285.668 24.6456 286.581 23.9454 287.762 23.4279C288.943 22.9104 290.307 22.6547 291.847 22.6486C294.142 22.6486 295.999 23.2209 297.406 24.3838C298.812 25.5406 299.567 27.1235 299.671 29.1266H295.488C295.415 28.2316 295.044 27.5071 294.386 26.9713C293.722 26.4355 292.833 26.1676 291.707 26.1676C290.605 26.1676 289.765 26.3807 289.181 26.7947C288.596 27.2087 288.304 27.7628 288.304 28.4447C288.304 28.9804 288.499 29.4371 288.894 29.8023C289.284 30.1676 289.765 30.4538 290.325 30.6608C290.885 30.8678 291.719 31.1296 292.821 31.4462C294.289 31.8358 295.494 32.2316 296.438 32.6334C297.381 33.0352 298.191 33.6258 298.879 34.4051C299.567 35.1844 299.92 36.2255 299.951 37.5223C299.951 38.673 299.634 39.7019 299.001 40.603C298.368 41.5101 297.467 42.2164 296.31 42.7339C295.147 43.2514 293.789 43.5071 292.225 43.5132C290.636 43.5132 289.211 43.2331 287.951 42.6608Z" fill="white"/>
<path d="M307.147 22.9531L307.184 43.1601H303.001L302.965 22.9592H307.147V22.9531Z" fill="white"/>
<path d="M314.806 42.1737C313.266 41.3092 312.054 40.0854 311.172 38.5146C310.289 36.9378 309.844 35.1113 309.844 33.0352C309.844 30.9834 310.289 29.163 311.19 27.5679C312.091 25.9789 313.327 24.7551 314.885 23.8967C316.45 23.0382 318.197 22.606 320.127 22.606C322.057 22.606 323.805 23.026 325.376 23.8784C326.94 24.7308 328.176 25.9545 329.083 27.5375C329.99 29.1265 330.447 30.9469 330.447 32.9987C330.447 35.0504 329.99 36.8769 329.065 38.4659C328.14 40.055 326.873 41.2848 325.278 42.1554C323.677 43.026 321.911 43.4644 319.981 43.4644C318.076 43.4644 316.353 43.0382 314.806 42.1737ZM323.001 39.0626C323.939 38.5451 324.706 37.778 325.29 36.749C325.875 35.7201 326.167 34.472 326.167 33.0047C326.167 31.5375 325.881 30.2955 325.315 29.2848C324.748 28.2741 324.006 27.507 323.074 26.9956C322.143 26.4842 321.144 26.2285 320.067 26.2285C318.989 26.2285 317.997 26.4903 317.077 27.0017C316.164 27.5192 315.433 28.2802 314.898 29.297C314.362 30.3137 314.094 31.5557 314.1 33.023C314.1 35.1965 314.66 36.8769 315.78 38.0641C316.895 39.2452 318.295 39.8358 319.981 39.8358C321.059 39.8358 322.064 39.574 323.007 39.0626H323.001Z" fill="white"/>
<path d="M347.58 23.5435C348.84 24.201 349.826 25.1752 350.539 26.472C351.251 27.7688 351.604 29.3335 351.61 31.166L351.628 43.0869H347.482L347.464 31.7992C347.464 29.991 347.007 28.6029 346.1 27.6409C345.193 26.679 343.957 26.198 342.392 26.198C340.828 26.198 339.586 26.6851 338.673 27.6531C337.759 28.6211 337.303 30.0093 337.303 31.8175L337.321 43.1112H333.138L333.102 22.9103H337.284V25.2117C337.966 24.3776 338.843 23.7322 339.902 23.2634C340.962 22.7946 342.094 22.5633 343.293 22.5633C344.883 22.5633 346.307 22.886 347.567 23.5435H347.58Z" fill="white"/>
<path d="M355.324 27.4887C356.164 25.924 357.309 24.7063 358.764 23.8357C360.219 22.9651 361.826 22.5267 363.586 22.5267C365.175 22.5267 366.563 22.8311 367.75 23.4522C368.937 24.0732 369.887 24.8464 370.593 25.7779V22.8433L374.806 22.8372L374.843 43.0442H370.624V40.0427C369.918 40.9986 368.949 41.7961 367.732 42.4293C366.508 43.0686 365.12 43.3852 363.555 43.3913C361.82 43.3913 360.231 42.9529 358.788 42.0579C357.345 41.169 356.201 39.9209 355.354 38.3258C354.508 36.7246 354.082 34.9103 354.082 32.8829C354.082 30.8555 354.496 29.0595 355.336 27.4887H355.324ZM369.735 29.2969C369.156 28.2741 368.408 27.4887 367.476 26.9529C366.545 26.4171 365.546 26.1493 364.469 26.1493C363.391 26.1493 362.392 26.4171 361.461 26.9407C360.529 27.4704 359.781 28.2375 359.208 29.2543C358.636 30.271 358.35 31.4765 358.35 32.8707C358.35 34.2649 358.642 35.4887 359.22 36.5359C359.799 37.5891 360.554 38.3867 361.497 38.9346C362.441 39.4826 363.433 39.7566 364.487 39.7566C365.54 39.7566 366.563 39.4826 367.494 38.9468C368.42 38.405 369.175 37.6196 369.747 36.5785C370.319 35.5374 370.606 34.3197 370.599 32.9255C370.593 31.5313 370.307 30.3197 369.729 29.2969H369.735Z" fill="white"/>
<path d="M378.721 27.4522C379.561 25.8876 380.706 24.6699 382.161 23.7993C383.616 22.9286 385.235 22.4903 387.019 22.4903C388.34 22.4903 389.643 22.7764 390.928 23.3426C392.212 23.9149 393.235 24.676 393.996 25.6318L393.978 15.8784H398.197L398.246 43.0078H394.027V39.9697C393.345 40.95 392.395 41.7597 391.19 42.3929C389.978 43.0321 388.596 43.3487 387.031 43.3548C385.272 43.3548 383.665 42.9165 382.209 42.0215C380.754 41.1326 379.604 39.8845 378.757 38.2894C377.911 36.6882 377.485 34.8739 377.485 32.8465C377.485 30.8191 377.899 29.023 378.739 27.4522H378.721ZM393.132 29.2605C392.553 28.2376 391.805 27.4522 390.873 26.9165C389.942 26.3807 388.943 26.1128 387.865 26.1128C386.788 26.1128 385.789 26.3807 384.858 26.9043C383.926 27.434 383.177 28.2011 382.605 29.2178C382.033 30.2346 381.747 31.4401 381.747 32.8343C381.747 34.2285 382.039 35.4522 382.617 36.4994C383.196 37.5527 383.951 38.3503 384.894 38.8982C385.838 39.4461 386.83 39.7201 387.884 39.7201C388.961 39.7201 389.96 39.4462 390.891 38.9104C391.817 38.3685 392.572 37.5831 393.144 36.542C393.716 35.5009 394.002 34.2833 393.996 32.8891C393.996 31.4949 393.704 30.2833 393.126 29.2605H393.132Z" fill="white"/>
<path d="M405.863 42.0154C404.323 41.1509 403.111 39.9271 402.228 38.3564C401.345 36.7795 400.901 34.953 400.901 32.8769C400.901 30.8252 401.345 29.0048 402.247 27.4096C403.148 25.8206 404.384 24.5969 405.942 23.7384C407.507 22.88 409.254 22.4477 411.184 22.4477C413.114 22.4477 414.861 22.8678 416.432 23.7201C417.997 24.5725 419.233 25.7962 420.14 27.3792C421.047 28.9682 421.504 30.7886 421.504 32.8404C421.504 34.8921 421.047 36.7186 420.122 38.3077C419.196 39.8967 417.93 41.1265 416.335 41.9972C414.734 42.8678 412.968 43.3061 411.038 43.3061C409.132 43.3061 407.409 42.88 405.863 42.0154ZM414.052 38.9043C414.989 38.3868 415.756 37.6197 416.341 36.5908C416.925 35.5618 417.218 34.3138 417.218 32.8465C417.218 31.3792 416.931 30.1372 416.365 29.1265C415.799 28.1159 415.056 27.3488 414.125 26.8373C413.193 26.3259 412.195 26.0702 411.117 26.0702C410.04 26.0702 409.047 26.332 408.128 26.8434C407.215 27.3609 406.484 28.122 405.948 29.1387C405.412 30.1555 405.145 31.3975 405.151 32.8647C405.151 35.0383 405.711 36.7186 406.831 37.9058C407.945 39.087 409.345 39.6775 411.032 39.6775C412.11 39.6775 413.114 39.4157 414.058 38.9043H414.052Z" fill="white"/>
<path d="M427.257 42.4172C425.997 41.8449 424.998 41.0656 424.262 40.0732C423.525 39.0869 423.135 37.9788 423.08 36.7551H427.409C427.482 37.6014 427.896 38.3198 428.639 38.8921C429.388 39.4644 430.319 39.7505 431.446 39.7505C432.621 39.7505 433.528 39.5192 434.179 39.0687C434.825 38.6181 435.147 38.0336 435.147 37.3274C435.147 36.5725 434.782 36.0062 434.064 35.641C433.339 35.2757 432.201 34.8738 430.63 34.4355C429.114 34.0215 427.878 33.6196 426.922 33.23C425.966 32.8403 425.144 32.2437 424.444 31.44C423.744 30.6364 423.397 29.5709 423.391 28.2498C423.391 27.1722 423.708 26.1919 424.341 25.297C424.974 24.402 425.887 23.7018 427.068 23.1843C428.256 22.6668 429.613 22.4111 431.154 22.405C433.449 22.405 435.306 22.9773 436.712 24.1402C438.119 25.297 438.873 26.8799 438.977 28.883H434.794C434.721 27.988 434.35 27.2635 433.692 26.7277C433.029 26.1919 432.14 25.9241 431.013 25.9241C429.912 25.9241 429.071 26.1371 428.487 26.5511C427.902 26.9652 427.61 27.5192 427.61 28.2011C427.61 28.7368 427.805 29.1935 428.201 29.5588C428.59 29.9241 429.071 30.2102 429.631 30.4172C430.192 30.6242 431.026 30.886 432.128 31.2026C433.595 31.5922 434.8 31.988 435.744 32.3898C436.688 32.7916 437.497 33.3822 438.185 34.1615C438.873 34.9408 439.227 35.9819 439.257 37.2787C439.257 38.4294 438.94 39.4583 438.307 40.3594C437.674 41.2665 436.773 41.9728 435.616 42.4903C434.453 43.0078 433.096 43.2635 431.531 43.2696C429.942 43.2696 428.517 42.9895 427.257 42.4172Z" fill="white"/>
<path d="M303.184 20.2557C302.673 19.7443 302.411 19.1111 302.411 18.35C302.411 17.589 302.667 16.9558 303.178 16.4444C303.689 15.933 304.323 15.6712 305.084 15.6712C305.814 15.6712 306.441 15.9269 306.953 16.4383C307.464 16.9497 307.726 17.589 307.726 18.344C307.726 19.105 307.47 19.7382 306.959 20.2496C306.447 20.761 305.826 21.0228 305.09 21.0228C304.329 21.0228 303.696 20.7671 303.184 20.2557Z" fill="#FF7500"/>
</svg>
